<svg id="Layer_1" data-name="Layer 1" xmlns="http://www.w3.org/2000/svg" viewBox="0 0 39.83 53.18"><defs><style>.cls-1{fill:#ff7600;stroke:#e17600;stroke-miterlimit:10;}</style></defs><title>icon-buzz</title><path class="cls-1" d="M14.89,15.41a.9.9,0,0,0-.93-1H6.56a1,1,0,0,0,0,1.94H14A.9.9,0,0,0,14.89,15.41Z" transform="translate(-1.44 -0.41)"/><path class="cls-1" d="M13,32.8V28.94a2.78,2.78,0,1,0-5.55,0V32.8a2.78,2.78,0,1,0,5.55,0ZM10.26,28a.9.9,0,0,1,.93,1v1H9.34v-1A.9.9,0,0,1,10.26,28ZM9.34,32.8v-1h1.85v1a.93.93,0,1,1-1.85,0Z" transform="translate(-1.44 -0.41)"/><path class="cls-1" d="M2.87,8.65H17.66a.9.9,0,0,0,.93-1V1.88a.9.9,0,0,0-.93-1H2.87a.9.9,0,0,0-.93,1v5.8A.9.9,0,0,0,2.87,8.65Zm.92-5.8H5.64v1a.93.93,0,1,0,1.85,0v-1H9.34v1a.93.93,0,1,0,1.85,0v-1H13v1a.93.93,0,1,0,1.85,0v-1h1.85V6.71H3.79Z" transform="translate(-1.44 -0.41)"/><path class="cls-1" d="M39.85,10.58h-.92V5.75a.93.93,0,1,0-1.85,0v4.83H35.23V5.75a.93.93,0,1,0-1.85,0v4.83h-.93a.89.89,0,0,0-.92,1v5.8a4.82,4.82,0,0,0,3.7,4.74V40.53A10.37,10.37,0,0,1,25.06,51.16H19.51a8.54,8.54,0,0,1-8.32-7.82,8.56,8.56,0,0,0,7.4-8.6V11.54a.89.89,0,0,0-.93-1H2.87a.89.89,0,0,0-.93,1v23.2a8.49,8.49,0,0,0,7.4,8.6A10.44,10.44,0,0,0,19.51,53.1h5.55a12.28,12.28,0,0,0,12-12.57V22.08a4.83,4.83,0,0,0,3.7-4.74v-5.8A.89.89,0,0,0,39.85,10.58ZM3.79,34.74V12.51h13V34.74a6.59,6.59,0,0,1-6.48,6.76A6.59,6.59,0,0,1,3.79,34.74Zm35.14-17.4a2.78,2.78,0,1,1-5.55,0V12.51h5.55Z" transform="translate(-1.44 -0.41)"/></svg>