<svg id="Layer_1" data-name="Layer 1" xmlns="http://www.w3.org/2000/svg" viewBox="0 0 116 125"><defs><style>.cls-1{fill:#ff7600;stroke:#ff7600;stroke-miterlimit:10;}</style></defs><title>icon-cut</title><path class="cls-1" d="M60.19,113c-2.06-3.31-2-5.37-1.71-7.07.09-.63,1.53-4.48,3.32-9.32l8.52-23.55,24.39-66s-.54-.36-1.17.45c-.27.44-1.43,2.59-1.43,2.68L61.8,69,63.86,76a12,12,0,0,1-.44,6.81c-.45,1.16-2,5.28-2,5.28s-1,3-2.24,6.27c0,0-2.69,7.17-4,9.14-2.6,3.85-4.22,4-5.38,4.12a11.38,11.38,0,0,0-5.74,1.79A11.68,11.68,0,1,0,60.19,113ZM65.93,71.3A2.65,2.65,0,1,1,69.42,70,2.7,2.7,0,0,1,65.93,71.3ZM55.08,126.83a8.9,8.9,0,1,1,2.78-12.27A8.9,8.9,0,0,1,55.08,126.83Z" transform="translate(-7.5 -6.5)"/><path class="cls-1" d="M122.86,31.26l-46,26.42L72.2,70.4l48-35.91c.09-.09,2.06-1.53,2.42-1.89C123.31,31.8,122.86,31.26,122.86,31.26Z" transform="translate(-7.5 -6.5)"/><path class="cls-1" d="M30.42,97.72a10.82,10.82,0,0,0,.9-6c-.09-1.17-.18-2.87,3.23-6s13.8-8.24,13.8-8.24,3.77-2.24,4.84-2.78a10,10,0,0,1,6.46-1.34l2.6.26-1.34-4.74,1.52-3-.63.36s-28.42,16-30.12,16.57-2.87,1.34-7.27-.63A11.83,11.83,0,0,0,9,88.31a11.7,11.7,0,0,0,21.43,9.41ZM11.59,89.39a8.91,8.91,0,1,1,4.57,11.73A8.83,8.83,0,0,1,11.59,89.39Z" transform="translate(-7.5 -6.5)"/><path class="cls-1" d="M68.71,70a2.2,2.2,0,0,0-.36-2.86,2.18,2.18,0,0,0-2.87.09Z" transform="translate(-7.5 -6.5)"/><path class="cls-1" d="M65.21,67.62a2.14,2.14,0,0,0,3.23,2.78Z" transform="translate(-7.5 -6.5)"/></svg>