<svg id="Layer_1" data-name="Layer 1" xmlns="http://www.w3.org/2000/svg" xmlns:xlink="http://www.w3.org/1999/xlink" viewBox="0 0 61.32 98.35"><defs><style>.cls-1{fill:none;}.cls-2{clip-path:url(#clip-path);}.cls-3{fill:#ff7600;stroke:#e17600;stroke-miterlimit:10;}</style><clipPath id="clip-path" transform="translate(-0.59 -0.63)"><rect class="cls-1" width="62.7" height="99.9"/></clipPath></defs><title>icon-beard-trim</title><g id="Vector_Smart_Object" data-name="Vector Smart Object"><g class="cls-2"><g class="cls-2"><path class="cls-3" d="M2.16,12.2H4.37a7,7,0,0,0-.09,1.37A12.45,12.45,0,0,0,16.59,26.1,12.45,12.45,0,0,0,28.9,13.57v-.49a5.23,5.23,0,0,1,4.61,0v.49a12.31,12.31,0,1,0,24.62,0A6.52,6.52,0,0,0,58,12.2h2.21A1.12,1.12,0,0,0,61.4,11a1.11,1.11,0,0,0-1.15-1.17H57.56A12.78,12.78,0,0,0,45.63,1.13,12.39,12.39,0,0,0,34,9.55a8.52,8.52,0,0,0-5.87,0A12.12,12.12,0,0,0,5,9.85H2.26A1.12,1.12,0,0,0,1.1,11,1.06,1.06,0,0,0,2.16,12.2M45.63,4.65a8.92,8.92,0,1,1-8.75,8.92,8.87,8.87,0,0,1,8.75-8.92m-29,0a8.92,8.92,0,0,1,0,17.83,8.92,8.92,0,0,1,0-17.83" transform="translate(-0.59 -0.63)"/></g><g class="cls-2"><path class="cls-3" d="M55.06,39.23c1-.39,2-3,2-3a6.38,6.38,0,0,1-5.29-2.64,13,13,0,0,0-8.27-2.65A10.1,10.1,0,0,0,36,29.83a6.59,6.59,0,0,0-5,5.38c-.09-.78-.67-4.11-5-5.38a10.08,10.08,0,0,0-7.5,1.07,12.85,12.85,0,0,0-8.27,2.65A6.58,6.58,0,0,1,5,36.19s1,2.65,2,3c0,0-5.58,1.66-5.87,9.4s2.7,16.95,8,18.52c0,0-.68,11,11.15,18.51l.19-1.47s-.09,3.33,5.39,6.76a10.88,10.88,0,0,1,5,6.27L31,98.29V99c0-.78.39-4.8,5.29-7.94,5.49-3.42,5.39-6.75,5.39-6.75l.19,1.47C53.71,78.21,53,67.24,53,67.24c5.29-1.66,8.27-10.77,8-18.51-.48-7.84-6-9.5-6-9.5M30.82,44.71a29,29,0,0,1-8.65-1.27,11.31,11.31,0,0,0,4.32-1.37l-.28.59a5.3,5.3,0,0,0,4.61-1.77,5.15,5.15,0,0,0,4.62,1.77l-.29-.59a11.31,11.31,0,0,0,4.33,1.37,29.07,29.07,0,0,1-8.66,1.27" transform="translate(-0.59 -0.63)"/></g></g></g></svg>