<svg id="Layer_1" data-name="Layer 1" xmlns="http://www.w3.org/2000/svg" viewBox="0 0 46.38 95.02"><defs><style>.cls-1{fill:#ff7600;stroke:#ff7600;stroke-miterlimit:10;}</style></defs><title>icon-cutshave</title><path class="cls-1" d="M5,30.75a4.1,4.1,0,0,0,0,8.19,4.1,4.1,0,0,0,0-8.19ZM5,37A2.15,2.15,0,0,1,5,32.7a2.14,2.14,0,0,1,2.09,2.14A2.08,2.08,0,0,1,5,37Z" transform="translate(-0.48 -0.93)"/><path class="cls-1" d="M7.62,45.76a3.31,3.31,0,1,0,3.23,3.31A3.24,3.24,0,0,0,7.62,45.76Zm0,4.67A1.36,1.36,0,1,1,9,49.07,1.31,1.31,0,0,1,7.62,50.43Z" transform="translate(-0.48 -0.93)"/><path class="cls-1" d="M44.46,67.29,38.1,48.19h0V39a.7.7,0,0,0,.19-.48l3.13-15.49A5.75,5.75,0,0,0,40.1,11.75a5.14,5.14,0,0,0-1.71.3,6.35,6.35,0,0,0-4.28-4.78,6.37,6.37,0,0,0-6.36-5.84,6.26,6.26,0,0,0-6,4.38h-.66a8.69,8.69,0,0,0-8.36,6.33h0a8.67,8.67,0,0,0-.57,3.12V38.84A3.38,3.38,0,0,0,11.52,41a3.45,3.45,0,0,0,3.23,3.61h.57a3.25,3.25,0,0,0,2.08-.78v4.77L11.14,67.39A22.22,22.22,0,0,0,9.43,76c0,10.72,7.31,19.49,16.42,19.49h4.09c9,0,16.42-8.77,16.42-19.49A25.6,25.6,0,0,0,44.46,67.29ZM36.58,37.38H35.16l2.09-14.91a5.88,5.88,0,0,0,2.18.78Zm-16.23,0H18.92l-1-5.36v-9c.19.09.28.09.47.19Zm0-13.74h.85l1.14-.1h.29l1,13.84H22.25ZM19.21,39.33h16.9v8.18H19.21ZM24.52,23A9.17,9.17,0,0,0,26.8,21.5V37.38H25.66ZM28.7,37.38V19.26c.1-.1.1-.2.19-.3a5.43,5.43,0,0,0,2.38.88L29.94,37.38Zm3.14,0,1.32-17.54a4.43,4.43,0,0,0,1.62-.49,6.72,6.72,0,0,0,.76,1.46L33.26,37.38ZM16.45,20.62a1,1,0,0,0-.47.88V39.13a1,1,0,0,0,.28.68A1.82,1.82,0,0,1,16.74,41a1.53,1.53,0,0,1-1.33,1.66h-.57A1.53,1.53,0,0,1,13.51,41,1.65,1.65,0,0,1,14,39.81a.83.83,0,0,0,.19-.68V15.26a3.92,3.92,0,0,1,.09-1,7.58,7.58,0,0,1,.38-1.56v-.1a6.88,6.88,0,0,1,12.82-.19.94.94,0,0,0,1.8-.39.61.61,0,0,0-.09-.39,8.87,8.87,0,0,0-5.6-5.07,4.39,4.39,0,0,1,4.27-3.22A4.52,4.52,0,0,1,32.31,8a1,1,0,0,0,.19.69,1,1,0,0,0,.66.39,4.57,4.57,0,0,1,3.61,4.57,1.51,1.51,0,0,0,.19.59l.29.29a.83.83,0,0,0,1,0h0a3.43,3.43,0,0,1,2-.58,2.68,2.68,0,0,1,1.52.39A2.45,2.45,0,0,1,43,15.36a4.06,4.06,0,0,1,.76,2.34A3.68,3.68,0,0,1,41.9,21a3.88,3.88,0,0,1-1.8.49h-.29a4.46,4.46,0,0,1-2.28-1,3.29,3.29,0,0,1-1.14-2.43.9.9,0,0,0-.28-.69c-.1-.09-.19-.09-.19-.19a1.07,1.07,0,0,0-1,.1,3.64,3.64,0,0,1-1.62.78,4.17,4.17,0,0,1-1.89.09A3.62,3.62,0,0,1,29.18,17a.78.78,0,0,0-.48-.19h-.38a1,1,0,0,0-.66.58A7.79,7.79,0,0,1,26.9,19a7.46,7.46,0,0,1-2.38,2.24,6.11,6.11,0,0,1-1.89.69.37.37,0,0,0-.29.09l-1,.1a3.74,3.74,0,0,1-1.05-.1,4.77,4.77,0,0,1-2-.68,2.33,2.33,0,0,1-.67-.39C17.12,20.42,16.74,20.42,16.45,20.62ZM29.84,93.4H25.76c-8,0-14.53-7.89-14.53-17.54A18.94,18.94,0,0,1,12.85,68L19,49.46H36.49L42.66,68a20.31,20.31,0,0,1,1.61,7.89C44.27,85.61,37.82,93.4,29.84,93.4Z" transform="translate(-0.48 -0.93)"/></svg>