<svg id="Layer_1" data-name="Layer 1" xmlns="http://www.w3.org/2000/svg" xmlns:xlink="http://www.w3.org/1999/xlink" viewBox="0 0 46.38 96.74"><defs><style>.cls-1{fill:none;}.cls-2{clip-path:url(#clip-path);}.cls-3,.cls-4{fill:#ff7600;}.cls-3{stroke:#ff7600;stroke-miterlimit:10;}</style><clipPath id="clip-path" transform="translate(-2.24 -1.01)"><rect class="cls-1" width="49.9" height="99.1"/></clipPath></defs><title>icon-shave</title><g id="Vector_Smart_Object" data-name="Vector Smart Object"><g class="cls-2"><g class="cls-2"><path d="M34.9,42.1c-.1,0-.1-.1-.2-.1l-.9-.5.9.6a.14.14,0,0,1,.2,0" transform="translate(-2.24 -1.01)"/></g><g class="cls-2"><path class="cls-3" d="M39.75,15.17h0l1.64-2.8c.36-.68,3.82-6.2,3-10.07a1,1,0,0,0-1.09-.77,1,1,0,0,0-.73,1.16c.54,2.51-1.82,7-2.73,8.52l-1.63,2.9-2.64-1.26a1,1,0,0,0-1.18.39L32.29,17a1.12,1.12,0,0,0-.09.78c0,.09.46,1.74,1.1,4.64L24.66,37,2.93,73.06a1.17,1.17,0,0,0-.19.77c.1.29.19.49.37.58L8.29,77.9h0l.09.09,3.09,2h.09a.36.36,0,0,0,.19.09H12a1.07,1.07,0,0,0,.82-.48l21.82-36.2a1.12,1.12,0,0,0,.09-.78v-.19s0-.1-.09-.1a.09.09,0,0,0-.09-.09c-.09,0-.09-.1-.09-.1a.31.31,0,0,0-.18-.1l-.82-.58-2.73-1.84c-.27-.09-.46-.58-.64-1.16-.54-2.23.18-6.87,3.73-13.16,2.27,12.48,5.64,38.33.64,65.82a.82.82,0,0,0,.27.87L39.57,97a.79.79,0,0,0,.64.3,1.19,1.19,0,0,0,.54-.2l5.37-3.87a1,1,0,0,0,.36-.68c.09-.09,6.55-44.33-6.73-77.34m-8.64,27.2,1.55,1L11.75,78,10.2,77ZM44.75,92.13,40.3,95.32l-3.91-4.07C42.93,55,35,21.66,34,17.59l1.46-2.71,2.63,1.26c12.28,30.88,7.28,71.44,6.64,76" transform="translate(-2.24 -1.01)"/></g><g class="cls-2"><path class="cls-4" d="M41.8,93.5a1.4,1.4,0,1,0-1.4-1.4,1.37,1.37,0,0,0,1.4,1.4" transform="translate(-2.24 -1.01)"/></g><g class="cls-2"><path class="cls-4" d="M37.2,16.2a1.43,1.43,0,0,0-1.4,1.4A1.37,1.37,0,0,0,37.2,19a1.43,1.43,0,0,0,1.4-1.4,1.37,1.37,0,0,0-1.4-1.4" transform="translate(-2.24 -1.01)"/></g></g></g></svg>