<svg id="ab6f8699-530a-465f-bc42-bb735d7a1b39" xmlns="http://www.w3.org/2000/svg" viewBox="0 0 1144.01 714.88"><defs><style>.cls-1{fill:#052d2c;}.cls-1,.cls-6{isolation:isolate;}.cls-2{fill:#fbbebe;}.cls-3{fill:#be6f72;}.cls-4{fill:#3f3d56;}.cls-5{fill:#e8e8f0;}.cls-6,.cls-9{opacity:0.1;}.cls-7{fill:#00bfa6;}.cls-8{fill:#e6e8ec;}</style></defs><title>undraw_barber--</title><path class="cls-1" d="M1144,494.2a180,180,0,0,0-76-147.42,183.94,183.94,0,0,0,1-18.77c0-99.14-79.24-179.51-177-179.51A174.28,174.28,0,0,0,806.09,171C736.9,125.52,646.57,98,547.75,98,387,98,248.65,170.92,187.29,275.52c-3.41-.2-6.84-.31-10.3-.31-97.74,0-177,80.37-177,179.51a180.49,180.49,0,0,0,29.13,98.69h0c0,89.2,84.19,161.5,188,161.5H970.24c81.54,0,147.64-56.77,147.64-126.81h0A180.51,180.51,0,0,0,1144,494.2Z" transform="translate(0.01 -0.03)"/><path class="cls-2" d="M828.58,164.13c-7.54,3.18-15.1,6.37-22.12,10.57-3.19,1.9-6.25,4-9.53,5.73a118.5,118.5,0,0,1-11,4.82,244.5,244.5,0,0,0-29.84,14.62c.83-10.75-.74-22.43-7.17-30.81a27.1,27.1,0,0,0-3.14-3.46c-4.55-4.22-11-5.31-15.47-9,2.72-4.78,8.76-9.12,12.87-12.77q6.66-5.9,13.82-11.17a196.76,196.76,0,0,1,30.35-18.43c6.76-3.31,13.82-6.27,21.28-7.28a4.67,4.67,0,0,1,2.81.25c1.16.64,1.58,2.08,1.86,3.37,1.39,6.45,2.1,13.07,3.26,19.57a83.94,83.94,0,0,0,2.31,9.89q1.88,5.76,4.31,11.31Q825.9,157.73,828.58,164.13Z" transform="translate(0.01 -0.03)"/><path class="cls-3" d="M614.57,346.41a63,63,0,1,1-63-63A63,63,0,0,1,614.57,346.41Z" transform="translate(0.01 -0.03)"/><path class="cls-3" d="M529,401.93c3.37,5.81,6.77,11.67,8.93,18s3,13.34,1.22,19.81c21.46-11.3,47-10.39,70.62-16.11a2.54,2.54,0,0,0,1.63-.86,2.6,2.6,0,0,0,0-2.08,172.92,172.92,0,0,1-5.63-56.2l-12.33,7.29a158.6,158.6,0,0,1-16.75,9c-8.15,3.57-16.8,5.73-25.31,8.23-6.74,2-20.12,4.59-24.36,10.48A12,12,0,0,1,529,401.93Z" transform="translate(0.01 -0.03)"/><path class="cls-4" d="M494.29,317.21c-4.1,1.65-8.92,3.55-12.69,1.24-2.77-1.71-3.91-5.26-3.74-8.51s1.41-6.33,2.39-9.43c2-6.37,3.08-13,5.31-19.34s5.87-12.45,11.65-15.8c10.64-6.16,24.41-1.07,36.22-4.48,5-1.43,9.35-4.31,14-6.57s9.88-4,14.9-2.79c5.88,1.37,10.22,6.32,15.7,8.84,6,2.76,13.18,2.57,18.64,6.26,3.87,2.62,6.31,6.85,8.48,11a209.41,209.41,0,0,1,16.35,41.9,63.4,63.4,0,0,1,2.67,16c.05,6.94-1.83,13.74-3.69,20.44l-3,10.6a48.59,48.59,0,0,1-4.35,11.62c-2.1,3.62-5.34,6.67-9.35,7.72-5,1.29-10.82-1.21-13-5.89-1.34-2.9-1.28-6.22-1.35-9.41a104.69,104.69,0,0,0-2-18.6c-.62-3.07-1.45-6.26-3.54-8.58-2.7-3-7-4-11-4.07-4.68-.06-9.81,1.21-12.54,5-2.19,3.06-2.57,7.36-5.48,9.75a9.05,9.05,0,0,1-4.45,1.81,14.86,14.86,0,0,1-15.73-9.45c-.92-2.64-1.37-5.92-3.87-7.16-1.3-.65-2.85-.53-4.24-.95-4.26-1.29-5.38-6.69-5.77-11.12-.45-5.19,1.28-15.44-5.17-15.79C508.69,311.07,500.68,315.08,494.29,317.21Z" transform="translate(0.01 -0.03)"/><path class="cls-4" d="M509.4,385.5c-2.22,1.07-4.65,2.32-5.52,4.62-.34.9-.4,1.89-.71,2.81-1.41,4.07-6.91,4.87-9.75,8.11a12.8,12.8,0,0,0-2.51,5.61,40.68,40.68,0,0,0,1.76,24.24,19.52,19.52,0,0,0,4,6.6c5.08,5.18,13.84,5.08,20.17,1.55s10.7-9.72,14.41-16a55.53,55.53,0,0,0,4.91-10,61.44,61.44,0,0,0,2.43-10.89c2.22-14.41,5.12-30.39,4.12-45-3-.19-8.73-.4-11.38,1.48-3.32,2.36-2.4,7.12-3.6,10.57C524.89,377.5,516.65,381.88,509.4,385.5Z" transform="translate(0.01 -0.03)"/><path class="cls-4" d="M512,387.41c-3.75.23-10.47-3.92-14.23-3.71A117.56,117.56,0,0,1,491,369.84c2-2.87,5.22-3.57,10.09,0C505,372.59,510.4,382.1,512,387.41Z" transform="translate(0.01 -0.03)"/><path class="cls-5" d="M568.53,229.41c-4.07,2.15-6.59,2.25-8.6,1.82s-6,1.57-6,1.57c-35.25,12.06-36.64,17.75-36.64,17.75l40.81-14.41c7.85-3.44,8-2.23,8-2.23,6,5.64,13.64,1.82,13.64,1.82s10.57-5,7.46-9.81S572.61,227.3,568.53,229.41Zm17-.9s-3,8-13.79,6.7c0,0-5.3-.78-3.06-4.73,0,0,11-4.62,13.91-4.29s2.91,2.36,2.91,2.36Z" transform="translate(0.01 -0.03)"/><path class="cls-6" d="M568.53,229.41c-4.07,2.15-6.59,2.25-8.6,1.82s-6,1.57-6,1.57c-35.25,12.06-36.64,17.75-36.64,17.75l40.81-14.41c7.85-3.44,8-2.23,8-2.23,6,5.64,13.64,1.82,13.64,1.82s10.57-5,7.46-9.81S572.61,227.3,568.53,229.41Zm17-.9s-3,8-13.79,6.7c0,0-5.3-.78-3.06-4.73,0,0,11-4.62,13.91-4.29s2.91,2.36,2.91,2.36Z" transform="translate(0.01 -0.03)"/><path class="cls-5" d="M570.77,207.11c-6.1.2-7.37,4.76-7.37,4.76a8.79,8.79,0,0,0-.57,10.53L552,233.17a10.89,10.89,0,0,0-5.06,4s-23.78,21-23.43,22.91c0,0,3.88,2,28.49-20.43l6.46-5.72s1.43-10.69,11.52-12.72c0,0,1,.44,1.53-1.94a11.45,11.45,0,0,1,2.23-3.07C575.08,215,576.87,206.9,570.77,207.11Zm1.71,7.23s-3.27,8.44-7.93,6-.13-8.07-.13-8.07c8.08-7.86,8.06,2.07,8.06,2.07Z" transform="translate(0.01 -0.03)"/><circle class="cls-6" cx="552.22" cy="236.05" r="1.29"/><path class="cls-2" d="M665.06,195.29a85.33,85.33,0,0,0-11.69-5.08,78.33,78.33,0,0,0-16.37-2.8q-26.26-2.5-52.68-2.9c-3.11,0-6.29-.07-9.24,1a19.72,19.72,0,0,0-7,4.59,34.86,34.86,0,0,0-8,11.58,5.18,5.18,0,0,0-.5,3.58c.4,1.16,2,1.93,2.91,1.11a14.91,14.91,0,0,0-4.88,16,9.12,9.12,0,0,0-4.87,7.5,47.68,47.68,0,0,0,21.86-1.06c-2.12-.54-4.31,1.45-4.44,3.63a6,6,0,0,0,3.31,5.25,13.29,13.29,0,0,0,6.36,1.26c8.47,0,16.71-2.87,25.16-3.24,6.46-.29,13.12.88,19.29-1,7.16-2.22,13.55-8.51,20.93-7.2,5.89,1,9.73,6.52,13.57,11.1,6.14,7.31,13.73,13.23,21.26,19.1,5.8,4.52,11.86,9.16,19.05,10.69a10.54,10.54,0,0,0,6.52-.31,11.08,11.08,0,0,0,4.24-4c7.75-11,7.76-24.85,7.31-37.74-.23-6.59-1.67-7.48-7.77-10.21q-10.62-4.77-21.16-9.77Q676.59,201,665.06,195.29Z" transform="translate(0.01 -0.03)"/><path class="cls-5" d="M746.11,220a20.81,20.81,0,0,1-3.76,1.77c-2.19.52-4.42-.41-6.55-1.13-9-3-19-2.29-27.7-6a63,63,0,0,1-10.39,46.85c-1.8,2.56-4.17,5.18-7.29,5.38,1.39,4.27,5.67,6.85,9.73,8.77a104.46,104.46,0,0,0,20.24,7.14c2,.47,4.44.7,5.6-1,.7-1,1-2.71,2.23-2.65,1.88,2,1.26,6.1,3.86,7a4.92,4.92,0,0,0,2.47,0l5.8-1a10.63,10.63,0,0,0,4.88-1.68,9.62,9.62,0,0,0,2.23-2.84c6.5-11.07,9-23.88,10-36.53.49-6.28,1.1-12.94.67-19.24C757.73,219.41,750.81,217.78,746.11,220Z" transform="translate(0.01 -0.03)"/><path class="cls-6" d="M746.11,220a20.81,20.81,0,0,1-3.76,1.77c-2.19.52-4.42-.41-6.55-1.13-9-3-19-2.29-27.7-6a63,63,0,0,1-10.39,46.85c-1.8,2.56-4.17,5.18-7.29,5.38,1.39,4.27,5.67,6.85,9.73,8.77a104.46,104.46,0,0,0,20.24,7.14c2,.47,4.44.7,5.6-1,.7-1,1-2.71,2.23-2.65,1.88,2,1.26,6.1,3.86,7a4.92,4.92,0,0,0,2.47,0l5.8-1a10.63,10.63,0,0,0,4.88-1.68,9.62,9.62,0,0,0,2.23-2.84c6.5-11.07,9-23.88,10-36.53.49-6.28,1.1-12.94.67-19.24C757.73,219.41,750.81,217.78,746.11,220Z" transform="translate(0.01 -0.03)"/><path class="cls-3" d="M410.88,544.34c-2.85-3.66-5.78-7.54-10-9.47a27.28,27.28,0,0,0-7.6-1.86c-14.07-2-28.17-4.08-42.37-4.47-4.64-.13-9.62,0-13.4,2.71-4.33,3.09-6,8.78-6.24,14.09a39.75,39.75,0,0,0,15.32,33c8.5,6.48,19.24,9.19,29.72,11.33q8.26,1.7,16.61,3c5.56.86,11.22,1.54,16.59,3.26,11.48,3.68,21.61,12,33.65,12.69a2.63,2.63,0,0,0,1.65-.28,2.82,2.82,0,0,0,1-1.7c2.65-9.35,11.84-31.74,0-38.28-6.19-3.41-13.06-3.56-19.12-7.89S415.48,550.25,410.88,544.34Z" transform="translate(0.01 -0.03)"/><path class="cls-3" d="M309.79,606.41c-7.79-6.78-18.54-10.37-24.2-19-2.49-3.8-3.75-8.26-5-12.64l-3.68-13.22a7,7,0,0,1-.38-2.53c.28-2.76,3.53-4.07,6.27-4.5,14-2.18,28.58,3.46,39.06,13s17.21,22.7,21.16,36.34a3.39,3.39,0,0,1,.12,2.18,3.35,3.35,0,0,1-1.54,1.46c-5.06,3-11.86,7.37-17.77,8.29S314,610,309.79,606.41Z" transform="translate(0.01 -0.03)"/><path class="cls-4" d="M651.57,549.41l41,16.41a17.48,17.48,0,0,1,10.51,20.26L672.57,714.41H596.29l13.28-146S638.57,544.41,651.57,549.41Z" transform="translate(0.01 -0.03)"/><path class="cls-7" d="M691.17,534c-.76,1.66-1.88,3.3-1.71,5.11.1,1.08.66,2.1.58,3.17-.16,2.1-2.59,3.27-4.69,3.29s-4.21-.66-6.28-.3c-3.4.58-5.7,3.71-8.64,5.52-4.1,2.52-9.22,2.37-14,2.8-10,.9-19.46,4.65-28.51,8.92-6.15,2.9-12.68,6.62-15,13-3.33,9,3.13,18.48,4.56,28a53.75,53.75,0,0,1,.28,9.66c-1,33.62-2.86,67.63-4.78,101.21l-366.56.43,18.05-31.63c17.6-30.85,35.67-62.28,62.22-85.87a55.79,55.79,0,0,1,13.14-8.84l21.29,19a21.25,21.25,0,0,0,5.85,4.13c4,1.63,8.48.7,12.77.84,8.25.27,15.79,4.48,22.95,8.59a131.59,131.59,0,0,1,15.12,9.59c2.82,2.16,6.89,3.51,9.83,5.5l-.69-35.9c-.07-3.24-.12-6.56.85-9.65,1.88-6,7.25-10.24,9.83-16,1.17-2.57,1.74-5.37,2.72-8a55.12,55.12,0,0,1,5.14-9.65l13.27-21.32c3.28-5.26,6.55-10.52,10.11-15.59,15.57-22.21,36.53-40,56.92-57.85a23.84,23.84,0,0,1,3.35-14.56,22.53,22.53,0,0,0,2.58-4.69,19.5,19.5,0,0,0,.37-6v-1.54a13.94,13.94,0,0,1,3.86-8.72c2.34-2.43,5.47-3.91,8.55-5.29A278.83,278.83,0,0,1,594,404.64c2.71-.64,5.58-1.24,8.25-.43.81,2.61,3.57,3.53,6.33,4.19l1.77.41A29.63,29.63,0,0,1,623.09,415c3.87,3.38,6.53,7.9,9.12,12.35,19.47,33.43,28.44,77.29,58.56,101.58C692.23,530.11,691.93,532.41,691.17,534Z" transform="translate(0.01 -0.03)"/><path class="cls-6" d="M814,123.41c-10.54,23.17-31.31,46-58.43,46-2.21,0-4.43-.11-6.63-.33a27.1,27.1,0,0,0-3.14-3.46c-4.55-4.22-11-5.31-15.47-9,2.72-4.78,8.76-9.12,12.87-12.77q6.66-5.9,13.82-11.17a196.76,196.76,0,0,1,30.35-18.43c6.76-3.31,13.82-6.27,21.28-7.28a4.67,4.67,0,0,1,2.81.25c1.16.64,1.58,2.08,1.86,3.37C814.71,117,812.84,116.91,814,123.41Z" transform="translate(0.01 -0.03)"/><circle class="cls-2" cx="755.58" cy="100.37" r="67"/><path class="cls-5" d="M895.1,323.23A121.57,121.57,0,0,1,889.42,347c-1,2.81-2.23,5.55-3.5,8.25-7.45,15.79-11.54,32.86-13.49,50.22a27.77,27.77,0,0,1-.75,4.05c-1.47,5.6-4.57,10.6-6.94,15.87a128.94,128.94,0,0,0-6,17.53,9.82,9.82,0,0,0-.56,4.71c.37,1.69,1.59,3,2.45,4.53,4.44,7.65-.69,17-2.42,25.66-.59,3-.85,6.26-2.8,8.6-1.66,2-4.24,2.92-6.69,3.76A757,757,0,0,1,741.78,518c-5.41,1-11,1.93-16.37.93s-10.72-4.32-12.56-9.5c-1.06-3-.88-6.26-.79-9.44.2-6.68,0-13.4-.36-20.13-1.16-22.15-3.79-44.38,2-65.6,1.73-6.26,4.17-12.3,6.13-18.49,3.83-12.07,4.82-24.55,5.78-37.07.79-10.32,1.56-20.68,3.87-30.86,1.72-7.59.58-15.48.48-23.26a87.54,87.54,0,0,1,15-50c1.73-2.55,3.63-5.07,4.54-8,1.28-4.2.4-8.71-.18-13.07a91.75,91.75,0,0,1,1.74-33.31,34,34,0,0,1,4.61-11.49c2.49-3.63,6.06-6.37,9.63-8.95a253.14,253.14,0,0,1,67.83-34.75c2.23,5.64,4.37,12.23,6.08,18,.23.78.39,1.77-.25,2.27s-1.3.23-2,.25a3.59,3.59,0,0,0-3.09,2.65,6.51,6.51,0,0,0,.38,4.24c1.36,3.5,4.29,6.11,7.11,8.58l14.18,12.37a34.85,34.85,0,0,0,5.53,4.22c1.78,1,3.72,1.71,5.55,2.63C874,204,879,211.2,881.86,218.92s1.55,17,5.24,24.33C899.36,267.55,899.26,296.3,895.1,323.23Z" transform="translate(0.01 -0.03)"/><path class="cls-4" d="M885.78,577.49a107.22,107.22,0,0,1-.31,52.85c-.81,3.09-1.76,6.29-1.12,9.42.37,1.78,1.24,3.45,1.44,5.26a15.28,15.28,0,0,1-.53,4.9c-4.44,21-2.85,42.82-1.06,64.25-.76,0-1,.35-1.8.35H863.13c-.34-5.63-7.34-9.85-10.76-14.34A37.11,37.11,0,0,1,846,669c3-12,11.84-21.59,16.37-33.06,5-12.62,4.57-26.91,9.88-39.39C875.3,589.33,881,583.7,885.78,577.49Z" transform="translate(0.01 -0.03)"/><path class="cls-6" d="M885.78,577.49a107.22,107.22,0,0,1-.31,52.85c-.81,3.09-1.76,6.29-1.12,9.42.37,1.78,1.24,3.45,1.44,5.26a15.28,15.28,0,0,1-.53,4.9c-4.44,21-2.85,42.82-1.06,64.25-.76,0-1,.35-1.8.35H863.13c-.34-5.63-7.34-9.85-10.76-14.34A37.11,37.11,0,0,1,846,669c3-12,11.84-21.59,16.37-33.06,5-12.62,4.57-26.91,9.88-39.39C875.3,589.33,881,583.7,885.78,577.49Z" transform="translate(0.01 -0.03)"/><path class="cls-4" d="M845.34,481.24c-16.38-2.62-32.25,5.63-48.07,10.64C773.1,499.53,746.49,500,724.16,512a18.84,18.84,0,0,0-5.34,3.86,15.34,15.34,0,0,0-3.29,7.82A27.75,27.75,0,0,0,719,542c1.39,2.36,3.14,4.53,4.22,7.06,2.56,6,.85,12.92.41,19.48-1,14.65,4.68,28.91,5.82,43.55.68,8.63-.21,17.45,1.82,25.87,1.27,5.28,3.66,10.26,4.65,15.6s.56,10.56.89,15.84c.93,15.13,7.82,29.83,6.14,44.9l130,.43c-4.82-16.77-8.83-34.11-4.46-51a120.64,120.64,0,0,1,5.64-15.65c7.27-17.57,14.74-35.19,18.75-53.77s4.37-38.42-2.42-56.18c-7.56-19.8-23.63-36.27-27.13-57.17C857.33,480.2,851.35,482.2,845.34,481.24Z" transform="translate(0.01 -0.03)"/><path class="cls-4" d="M708.91,67.72c-1.26-2.64-4.83-4.38-7.23-2.71s-2.09,5.4-2.68,8.4c-1.14,5.9-7,9.92-13,10.86-2.81.45-5.94.27-8.12-1.55a11.29,11.29,0,0,1-3-4.89c-6-16-2.35-34.68,7.47-48.64A34.19,34.19,0,0,1,690,21c8.27-6,19.33-6,29.56-5.68a14,14,0,0,0,6.15-.71,16.92,16.92,0,0,0,4.08-3c9.69-8.52,23.08-12.1,36-11.53s25.35,5,36.83,10.89c5.49,2.81,10.87,6,15.17,10.44,10.33,10.63,12.85,26.38,14.88,41.06,2.18,15.84,4.35,32.12.68,47.69-2.08,8.82-6,17.44-5.54,26.49a214.34,214.34,0,0,1-25.28,5.59c-4,.63-8.62,1-11.55-1.83a11.47,11.47,0,0,1-2.64-4.68c-3.17-9.37-2.11-20.07-6.9-28.73a24.1,24.1,0,0,0-19.77-12.18c-3.14-.11-6.71.66-8.32,3.35a20.69,20.69,0,0,0-1.42,4.12c-2.22,6.69-11.31,10-17.3,6.27-3-1.88-5-5-7.76-7.34-3.44-3-7.85-4.47-11.71-6.85C702.3,86.41,713.89,78.17,708.91,67.72Z" transform="translate(0.01 -0.03)"/><path class="cls-4" d="M608.62,408.41c-5.47,1.75-10.45,4.92-15.77,7.15-9.37,3.91-19.67,4.82-29.5,7.32a121.08,121.08,0,0,0-27.11,10.92c-.63.34-2.61,2-4.19,3.14V435.4a13.94,13.94,0,0,1,3.86-8.72c2.34-2.43,5.47-3.91,8.55-5.29A279.13,279.13,0,0,1,594,404.64c2.71-.64,5.58-1.24,8.25-.43C603.1,406.82,605.86,407.74,608.62,408.41Z" transform="translate(0.01 -0.03)"/><path class="cls-6" d="M466.85,664.86c10.76,12,20.41,25.1,32.93,35.22-14.45-19.19-35.18-32-53.92-46.47-3.8-2.94-11.4-7.11-13.7-11.36-3.63-6.66,4.39-1.93,7.72-.12C450.28,647.78,459,656.12,466.85,664.86Z" transform="translate(0.01 -0.03)"/><path class="cls-6" d="M854,314.58c-.51,4.32-2.12,8.42-3.75,12.44-4,10-8.29,19.9-14.33,28.77-4.16,6.11-9.11,11.63-13.45,17.6a203.19,203.19,0,0,0-12.24,19.73Q800,411.24,790.29,429.66c-3.09,5.88-6.16,11.81-10.15,17.12a119.84,119.84,0,0,1-9,10.24c-7,7.38-14.19,14.2-20.45,22.2-3.1,4-8.27,5.54-13.1,6.9a17.77,17.77,0,0,1-5,.9,17.18,17.18,0,0,1-5-1.11,127.65,127.65,0,0,1-15.8-6c-1.16-22.15-3.79-44.38,2-65.6,1.73-6.26,4.17-12.3,6.13-18.49,3.83-12.07,4.82-24.55,5.78-37.07,1.19-2.51,2.46-5,3.69-7.42,8.34-16.48,15.37-34.63,13.2-53a98.72,98.72,0,0,1-1.15-10,37.54,37.54,0,0,1,2-12.07,66.74,66.74,0,0,1,38-41,21.22,21.22,0,0,1,9-2c4,.21,7.83,2.29,11.73,1.53,13.21,5.81,23.9,15.73,31.89,27.75s8.43,28.08,17.12,39.6C853.8,305.64,854.5,310.27,854,314.58Z" transform="translate(0.01 -0.03)"/><polygon points="564.87 260.28 564.45 259.37 548.11 266.91 545.38 268.17 542.66 269.42 565.7 319.37 568.42 318.11 571.15 316.85 587.49 309.31 587.07 308.41 570.73 315.95 570.31 315.04 586.65 307.5 586.23 306.59 569.89 314.13 569.47 313.22 585.81 305.68 585.4 304.77 569.05 312.31 568.63 311.41 584.98 303.87 584.56 302.96 568.21 310.5 567.79 309.59 584.14 302.05 583.72 301.14 567.38 308.68 566.96 307.77 583.3 300.23 582.88 299.33 566.54 306.87 566.12 305.96 582.46 298.42 582.04 297.51 565.7 305.05 565.28 304.14 581.63 296.6 581.21 295.69 564.86 303.23 564.44 302.33 580.79 294.78 580.37 293.88 564.02 301.42 563.61 300.51 579.95 292.97 579.53 292.06 563.19 299.6 562.77 298.69 579.11 291.15 578.69 290.24 562.35 297.78 561.93 296.88 578.27 289.34 577.86 288.43 561.51 295.97 561.09 295.06 577.44 287.52 577.02 286.61 560.67 294.15 560.26 293.24 576.6 285.71 576.18 284.8 559.84 292.34 559.42 291.43 575.76 283.89 575.34 282.98 559 290.52 558.58 289.61 574.92 282.07 574.51 281.16 558.16 288.71 557.74 287.8 574.09 280.26 573.67 279.35 557.32 286.89 556.9 285.98 573.25 278.44 572.83 277.53 556.49 285.07 556.07 284.16 572.41 276.62 571.99 275.72 555.65 283.26 555.23 282.35 571.57 274.81 571.15 273.9 554.81 281.44 554.39 280.53 570.74 272.99 570.32 272.09 553.97 279.62 553.55 278.72 569.9 271.18 569.48 270.27 553.13 277.81 552.72 276.9 569.06 269.36 568.64 268.45 552.3 275.99 551.88 275.08 568.22 267.54 567.8 266.64 551.46 274.18 551.04 273.27 567.38 265.73 566.97 264.82 550.62 272.36 550.2 271.45 566.55 263.91 566.13 263 549.78 270.54 549.36 269.64 565.71 262.1 565.29 261.19 548.94 268.73 548.53 267.82 564.87 260.28"/><path class="cls-6" d="M616.16,370.17c-2.11,3.57-5.34,6.67-9.35,7.72-5,1.29-10.82-1.21-13-5.89-1.34-2.9-1.28-6.22-1.35-9.41a104.69,104.69,0,0,0-2-18.6c-.62-3.07-1.45-6.26-3.54-8.58-2.7-3-7-4-11-4.07-4.68-.06-9.81,1.21-12.54,5-2.19,3.06-2.57,7.36-5.48,9.75a9.05,9.05,0,0,1-4.45,1.81,14.86,14.86,0,0,1-15.73-9.45c-.92-2.64-1.37-5.92-3.87-7.16-1.3-.65-2.85-.53-4.24-1-4.26-1.29-5.38-6.69-5.77-11.12-.45-5.19,1.28-15.44-5.17-15.79-6.9-.38-14.91,3.63-21.3,5.76-4.1,1.65-8.92,3.55-12.69,1.24-2.77-1.71-3.91-5.26-3.74-8.51s1.41-6.33,2.39-9.43c1.68-5.24,2.69-10.68,4.23-16a47.89,47.89,0,0,0-1.93,4.62c-2.22,6.31-3.26,13-5.3,19.34-1,3.1-2.22,6.18-2.39,9.43s1,6.8,3.74,8.51c3.77,2.31,8.59.41,12.69-1.24,6.39-2.13,14.4-6.14,21.3-5.76,6.45.35,4.72,10.6,5.17,15.79.39,4.43,1.51,9.83,5.77,11.12,1.39.42,2.94.3,4.24.95,2.5,1.24,3,4.52,3.87,7.16a14.86,14.86,0,0,0,15.73,9.45,9.05,9.05,0,0,0,4.45-1.81c2.91-2.39,3.29-6.69,5.48-9.75,2.73-3.81,7.86-5.08,12.54-5,4,.06,8.35,1.06,11,4.07,2.09,2.32,2.92,5.51,3.54,8.58a104.69,104.69,0,0,1,2,18.6c.07,3.19,0,6.51,1.35,9.41,2.17,4.68,8,7.18,13,5.89,4-1.05,7.24-4.15,9.35-7.72a39.88,39.88,0,0,0,3.68-9.24C616.62,369.35,616.4,369.76,616.16,370.17Z" transform="translate(0.01 -0.03)"/><path class="cls-2" d="M667.6,363.53c-8-7.68-15.23-16.18-22.41-24.66-6.88-8.11-13.78-16.26-19.32-25.33-3.43-5.61-6.49-11.73-11.76-15.66-4-3-8.89-4.4-13.31-6.69-3.18-1.65-6.11-3.74-9.25-5.45a44,44,0,0,0-22.34-5.27c-3.23.11-6.9.86-8.56,3.64-.57.95-.84,2.06-1.42,3-1.79,3-6.1,3.85-7.57,7-2.48,5.3,5,10.17,5.47,16,.22,2.92-1.39,5.64-1.86,8.53-.8,5,1.79,9.77,4.29,14.13,5.35,9.34,11.86,19.57,22.37,21.92,3.72.83,7.65.56,11.28,1.74a26.63,26.63,0,0,1,8,4.77,131,131,0,0,1,25.84,27.21c3.38,4.77,6.44,9.75,9.85,14.49a117.8,117.8,0,0,0,41.57,35.74l12.27-39c1.89-6,3.38-14.23-2-18.91C682,374.66,674.23,369.87,667.6,363.53Z" transform="translate(0.01 -0.03)"/><path class="cls-5" d="M801.17,229.83c-3.9.75-7.77-1.32-11.73-1.53a21.22,21.22,0,0,0-9,2,66.77,66.77,0,0,0-38,41,38.07,38.07,0,0,0-2,12.11c.06,3.35.76,6.65,1.15,10,2.17,18.34-4.86,36.5-13.19,53-4.61,9.11-9.81,18.72-8.72,28.87.14,1.36.36,2.89-.47,4-1,1.32-3.16,1.39-4.09,2.78s-.08,3.49-.82,5.06c-1,2.22-4.26,1.95-6.59,1.16a53,53,0,0,1-17.43-9.9c-8.31,4.85-17.2,10.63-19.93,19.85a43.65,43.65,0,0,0-1.33,7.18l-4.29,35.8c-.57,4.74-.85,10.3,2.73,13.46,6.17,5.46,17.16-1.61,23.76,3.33,1.69,1.26,2.79,3.14,4,4.85,7.21,9.89,19.62,14.24,31.26,18a17.49,17.49,0,0,0,5,1.1,17,17,0,0,0,5-.9c4.84-1.36,10-2.94,13.1-6.89,6.27-8,13.46-14.82,20.46-22.2a121.6,121.6,0,0,0,9-10.24c4-5.32,7.06-11.25,10.15-17.13q9.69-18.42,19.92-36.54a201.66,201.66,0,0,1,12.35-19.64c4.35-6,9.29-11.5,13.45-17.6,6-8.88,10.31-18.82,14.33-28.77,1.63-4,3.24-8.13,3.76-12.44s-.18-8.94-2.8-12.41c-8.69-11.53-9.12-27.58-17.11-39.6S814.39,235.63,801.17,229.83Z" transform="translate(0.01 -0.03)"/><path class="cls-4" d="M565.13,264.41a1.88,1.88,0,0,0-.86,1.35c0,.5.41.89.63,1.34.61,1.28-.37,2.76-1.49,3.64s-2.48,1.56-3.09,2.85a1,1,0,0,0-.12.56,1.2,1.2,0,0,0,.44.66,5.4,5.4,0,0,0,2.47,1.62c1.53.32,3-.69,4.3-1.52a23.28,23.28,0,0,1,4.48-2.2,4.27,4.27,0,0,0,1.35-.67,3,3,0,0,0,.87-1.86c.34-2.51-1-4.92-2.53-7C569.74,260.73,566.7,263.06,565.13,264.41Z" transform="translate(0.01 -0.03)"/><rect class="cls-4" x="315.25" y="501.75" width="61.27" height="119.62" rx="1.54" transform="translate(-311.52 614.31) rotate(-62.96)"/><rect class="cls-5" x="321.03" y="511.23" width="49.98" height="100.54" transform="translate(-311.4 614.4) rotate(-62.96)"/><ellipse class="cls-8" cx="297.8" cy="536.91" rx="1.09" ry="1.65" transform="translate(-315.79 558.04) rotate(-62.96)"/><ellipse class="cls-8" cx="394.78" cy="586.53" rx="1.79" ry="2.72" transform="translate(-307.1 671.48) rotate(-62.96)"/><g class="cls-9"><path d="M833.33,103.13c-2.08,8.82-6,17.44-5.54,26.49a214.34,214.34,0,0,1-25.28,5.59c-4,.63-8.62,1-11.55-1.83a11.47,11.47,0,0,1-2.64-4.68c-3.17-9.37-2.11-20.07-6.9-28.73a24.1,24.1,0,0,0-19.77-12.18c-3.14-.11-6.71.66-8.32,3.35a20.69,20.69,0,0,0-1.42,4.12c-2.22,6.69-11.31,10-17.3,6.27-3-1.88-5.05-5-7.76-7.34-3.44-3-7.85-4.47-11.71-6.85-3.48-2.14-5.15-4.3-5.86-6.53-.88,4.81-1.13,9.23,5.86,13.53,3.86,2.38,8.27,3.9,11.71,6.85,2.71,2.32,4.72,5.46,7.76,7.34,6,3.71,15.08.42,17.3-6.27a20.69,20.69,0,0,1,1.42-4.12c1.61-2.69,5.18-3.46,8.32-3.35A24.1,24.1,0,0,1,781.42,107c4.79,8.66,3.73,19.36,6.9,28.73a11.37,11.37,0,0,0,2.68,4.71c2.93,2.8,7.56,2.46,11.55,1.83a214.34,214.34,0,0,0,25.28-5.59c-.49-9.05,3.46-17.67,5.54-26.49a84.26,84.26,0,0,0,1.91-22A77,77,0,0,1,833.33,103.13Z" transform="translate(0.01 -0.03)"/><path d="M709.88,70.52a15.65,15.65,0,0,0-1-9.8c-1.26-2.64-4.83-4.38-7.23-2.71s-2.06,5.4-2.65,8.4c-1.14,5.9-7,9.92-13,10.86-2.81.45-5.94.27-8.12-1.55a11.29,11.29,0,0,1-3-4.89,46.31,46.31,0,0,1-2.77-12.94,47.64,47.64,0,0,0,2.77,19.94,11.29,11.29,0,0,0,3,4.89c2.18,1.82,5.31,2,8.12,1.55,5.93-.94,11.82-5,13-10.86.57-3,.18-6.63,2.66-8.35s6,.07,7.23,2.71A13.48,13.48,0,0,1,709.88,70.52Z" transform="translate(0.01 -0.03)"/></g></svg>